<mxfile host="app.diagrams.net" agent="Mozilla/5.0 (X11; Linux x86_64) AppleWebKit/537.36 (KHTML, like Gecko) Chrome/130.0.0.0 Safari/537.36" version="24.8.4">
  <diagram name="PÃ gina-1" id="veT2rnlL3bqaG_XNY8d2">
    <mxGraphModel dx="1079" dy="1209" grid="0" gridSize="10" guides="1" tooltips="1" connect="1" arrows="1" fold="1" page="0" pageScale="1" pageWidth="827" pageHeight="1169" math="0" shadow="0">
      <root>
        <mxCell id="0" />
        <mxCell id="1" parent="0" />
        <mxCell id="t4LPWN5obbuEQxLgJ1_r-4" value="" style="edgeStyle=none;curved=1;rounded=0;orthogonalLoop=1;jettySize=auto;html=1;fontSize=12;startSize=8;endSize=8;exitX=0;exitY=1;exitDx=0;exitDy=0;entryX=0.5;entryY=0;entryDx=0;entryDy=0;endArrow=none;endFill=0;strokeWidth=2;" edge="1" parent="1" source="t4LPWN5obbuEQxLgJ1_r-16" target="t4LPWN5obbuEQxLgJ1_r-2">
          <mxGeometry relative="1" as="geometry" />
        </mxCell>
        <mxCell id="t4LPWN5obbuEQxLgJ1_r-10" value="" style="edgeStyle=none;curved=1;rounded=0;orthogonalLoop=1;jettySize=auto;html=1;fontSize=12;startSize=8;endSize=8;exitX=0.5;exitY=1;exitDx=0;exitDy=0;entryX=0.5;entryY=0;entryDx=0;entryDy=0;endArrow=none;endFill=0;strokeWidth=2;" edge="1" parent="1" source="t4LPWN5obbuEQxLgJ1_r-16" target="t4LPWN5obbuEQxLgJ1_r-26">
          <mxGeometry relative="1" as="geometry" />
        </mxCell>
        <mxCell id="t4LPWN5obbuEQxLgJ1_r-32" style="edgeStyle=none;curved=1;rounded=0;orthogonalLoop=1;jettySize=auto;html=1;exitX=0.5;exitY=1;exitDx=0;exitDy=0;entryX=0.5;entryY=0;entryDx=0;entryDy=0;fontSize=12;startSize=8;endSize=8;endArrow=none;endFill=0;strokeWidth=2;" edge="1" parent="1" source="t4LPWN5obbuEQxLgJ1_r-1" target="t4LPWN5obbuEQxLgJ1_r-16">
          <mxGeometry relative="1" as="geometry" />
        </mxCell>
        <mxCell id="t4LPWN5obbuEQxLgJ1_r-1" value="Arrel" style="rhombus;whiteSpace=wrap;html=1;fillColor=#999999;strokeColor=#000000;fontColor=#FFFFFF;fontStyle=1" vertex="1" parent="1">
          <mxGeometry x="147.5" y="-121" width="65" height="60" as="geometry" />
        </mxCell>
        <mxCell id="t4LPWN5obbuEQxLgJ1_r-21" value="" style="edgeStyle=none;curved=1;rounded=0;orthogonalLoop=1;jettySize=auto;html=1;fontSize=12;startSize=8;endSize=8;entryX=0.5;entryY=0;entryDx=0;entryDy=0;exitX=0.5;exitY=1;exitDx=0;exitDy=0;endArrow=none;endFill=0;strokeWidth=2;" edge="1" parent="1" source="t4LPWN5obbuEQxLgJ1_r-2" target="t4LPWN5obbuEQxLgJ1_r-24">
          <mxGeometry relative="1" as="geometry">
            <mxPoint x="-67" y="233" as="targetPoint" />
          </mxGeometry>
        </mxCell>
        <mxCell id="t4LPWN5obbuEQxLgJ1_r-29" style="edgeStyle=none;curved=1;rounded=0;orthogonalLoop=1;jettySize=auto;html=1;entryX=0.5;entryY=0;entryDx=0;entryDy=0;fontSize=12;startSize=8;endSize=8;exitX=0.5;exitY=1;exitDx=0;exitDy=0;endArrow=none;endFill=0;strokeWidth=2;" edge="1" parent="1" source="t4LPWN5obbuEQxLgJ1_r-2" target="t4LPWN5obbuEQxLgJ1_r-25">
          <mxGeometry relative="1" as="geometry" />
        </mxCell>
        <mxCell id="t4LPWN5obbuEQxLgJ1_r-2" value="remitente" style="ellipse;whiteSpace=wrap;html=1;" vertex="1" parent="1">
          <mxGeometry x="-95" y="136" width="80" height="28.5" as="geometry" />
        </mxCell>
        <mxCell id="t4LPWN5obbuEQxLgJ1_r-18" style="edgeStyle=none;curved=1;rounded=0;orthogonalLoop=1;jettySize=auto;html=1;entryX=0.5;entryY=0;entryDx=0;entryDy=0;fontSize=12;startSize=8;endSize=8;exitX=0.475;exitY=1;exitDx=0;exitDy=0;exitPerimeter=0;endArrow=none;endFill=0;strokeWidth=2;" edge="1" parent="1" source="t4LPWN5obbuEQxLgJ1_r-16" target="t4LPWN5obbuEQxLgJ1_r-27">
          <mxGeometry relative="1" as="geometry" />
        </mxCell>
        <mxCell id="t4LPWN5obbuEQxLgJ1_r-19" style="edgeStyle=none;curved=1;rounded=0;orthogonalLoop=1;jettySize=auto;html=1;exitX=1;exitY=1;exitDx=0;exitDy=0;entryX=0.5;entryY=0;entryDx=0;entryDy=0;fontSize=12;startSize=8;endSize=8;endArrow=none;endFill=0;strokeWidth=2;" edge="1" parent="1" source="t4LPWN5obbuEQxLgJ1_r-16" target="t4LPWN5obbuEQxLgJ1_r-28">
          <mxGeometry relative="1" as="geometry" />
        </mxCell>
        <mxCell id="t4LPWN5obbuEQxLgJ1_r-16" value="mensaje" style="ellipse;whiteSpace=wrap;html=1;" vertex="1" parent="1">
          <mxGeometry x="140" y="-16" width="80" height="41" as="geometry" />
        </mxCell>
        <mxCell id="t4LPWN5obbuEQxLgJ1_r-38" style="edgeStyle=none;curved=1;rounded=0;orthogonalLoop=1;jettySize=auto;html=1;exitX=0.5;exitY=1;exitDx=0;exitDy=0;entryX=0.5;entryY=0;entryDx=0;entryDy=0;fontSize=12;startSize=8;endSize=8;endArrow=none;endFill=0;strokeWidth=2;" edge="1" parent="1" source="t4LPWN5obbuEQxLgJ1_r-24" target="t4LPWN5obbuEQxLgJ1_r-37">
          <mxGeometry relative="1" as="geometry" />
        </mxCell>
        <mxCell id="t4LPWN5obbuEQxLgJ1_r-24" value="nombre" style="ellipse;whiteSpace=wrap;html=1;" vertex="1" parent="1">
          <mxGeometry x="-137" y="240" width="80" height="28.5" as="geometry" />
        </mxCell>
        <mxCell id="t4LPWN5obbuEQxLgJ1_r-41" style="edgeStyle=none;curved=1;rounded=0;orthogonalLoop=1;jettySize=auto;html=1;exitX=0.5;exitY=1;exitDx=0;exitDy=0;entryX=0.5;entryY=0;entryDx=0;entryDy=0;fontSize=12;startSize=8;endSize=8;endArrow=none;endFill=0;strokeWidth=2;" edge="1" parent="1" source="t4LPWN5obbuEQxLgJ1_r-25" target="t4LPWN5obbuEQxLgJ1_r-40">
          <mxGeometry relative="1" as="geometry" />
        </mxCell>
        <mxCell id="t4LPWN5obbuEQxLgJ1_r-25" value="email" style="ellipse;whiteSpace=wrap;html=1;" vertex="1" parent="1">
          <mxGeometry x="-44" y="240" width="80" height="28.5" as="geometry" />
        </mxCell>
        <mxCell id="t4LPWN5obbuEQxLgJ1_r-33" style="edgeStyle=none;curved=1;rounded=0;orthogonalLoop=1;jettySize=auto;html=1;exitX=0.5;exitY=1;exitDx=0;exitDy=0;entryX=0.5;entryY=0;entryDx=0;entryDy=0;fontSize=12;startSize=8;endSize=8;endArrow=none;endFill=0;strokeWidth=2;" edge="1" parent="1" source="t4LPWN5obbuEQxLgJ1_r-26" target="t4LPWN5obbuEQxLgJ1_r-30">
          <mxGeometry relative="1" as="geometry" />
        </mxCell>
        <mxCell id="t4LPWN5obbuEQxLgJ1_r-26" value="destinatario" style="ellipse;whiteSpace=wrap;html=1;" vertex="1" parent="1">
          <mxGeometry x="76" y="136" width="80" height="28.5" as="geometry" />
        </mxCell>
        <mxCell id="t4LPWN5obbuEQxLgJ1_r-47" style="edgeStyle=none;curved=1;rounded=0;orthogonalLoop=1;jettySize=auto;html=1;exitX=0.5;exitY=1;exitDx=0;exitDy=0;entryX=0.5;entryY=0;entryDx=0;entryDy=0;fontSize=12;startSize=8;endSize=8;endArrow=none;endFill=0;strokeWidth=2;" edge="1" parent="1" source="t4LPWN5obbuEQxLgJ1_r-27" target="t4LPWN5obbuEQxLgJ1_r-46">
          <mxGeometry relative="1" as="geometry" />
        </mxCell>
        <mxCell id="t4LPWN5obbuEQxLgJ1_r-27" value="asunto" style="ellipse;whiteSpace=wrap;html=1;" vertex="1" parent="1">
          <mxGeometry x="257" y="136" width="80" height="28.5" as="geometry" />
        </mxCell>
        <mxCell id="t4LPWN5obbuEQxLgJ1_r-36" style="edgeStyle=none;curved=1;rounded=0;orthogonalLoop=1;jettySize=auto;html=1;exitX=0.5;exitY=1;exitDx=0;exitDy=0;entryX=0.5;entryY=0;entryDx=0;entryDy=0;fontSize=12;startSize=8;endSize=8;endArrow=none;endFill=0;strokeWidth=2;" edge="1" parent="1" source="t4LPWN5obbuEQxLgJ1_r-28" target="t4LPWN5obbuEQxLgJ1_r-35">
          <mxGeometry relative="1" as="geometry" />
        </mxCell>
        <mxCell id="t4LPWN5obbuEQxLgJ1_r-28" value="texto" style="ellipse;whiteSpace=wrap;html=1;" vertex="1" parent="1">
          <mxGeometry x="378" y="136" width="80" height="28.5" as="geometry" />
        </mxCell>
        <mxCell id="t4LPWN5obbuEQxLgJ1_r-45" style="edgeStyle=none;curved=1;rounded=0;orthogonalLoop=1;jettySize=auto;html=1;exitX=0.5;exitY=1;exitDx=0;exitDy=0;entryX=0.5;entryY=0;entryDx=0;entryDy=0;fontSize=12;startSize=8;endSize=8;endArrow=none;endFill=0;strokeWidth=2;" edge="1" parent="1" source="t4LPWN5obbuEQxLgJ1_r-30" target="t4LPWN5obbuEQxLgJ1_r-42">
          <mxGeometry relative="1" as="geometry" />
        </mxCell>
        <mxCell id="t4LPWN5obbuEQxLgJ1_r-30" value="nombre&lt;span style=&quot;color: rgba(0, 0, 0, 0); font-family: monospace; font-size: 0px; text-align: start; text-wrap-mode: nowrap;&quot;&gt;%3CmxGraphModel%3E%3Croot%3E%3CmxCell%20id%3D%220%22%2F%3E%3CmxCell%20id%3D%221%22%20parent%3D%220%22%2F%3E%3CmxCell%20id%3D%222%22%20value%3D%22Remitente%22%20style%3D%22ellipse%3BwhiteSpace%3Dwrap%3Bhtml%3D1%3B%22%20vertex%3D%221%22%20parent%3D%221%22%3E%3CmxGeometry%20x%3D%22-57%22%20y%3D%22138%22%20width%3D%2280%22%20height%3D%2228.5%22%20as%3D%22geometry%22%2F%3E%3C%2FmxCell%3E%3C%2Froot%3E%3C%2FmxGraphModel%3E&lt;/span&gt;" style="ellipse;whiteSpace=wrap;html=1;" vertex="1" parent="1">
          <mxGeometry x="41" y="240" width="80" height="28.5" as="geometry" />
        </mxCell>
        <mxCell id="t4LPWN5obbuEQxLgJ1_r-44" style="edgeStyle=none;curved=1;rounded=0;orthogonalLoop=1;jettySize=auto;html=1;exitX=0.5;exitY=1;exitDx=0;exitDy=0;entryX=0.5;entryY=0;entryDx=0;entryDy=0;fontSize=12;startSize=8;endSize=8;endArrow=none;endFill=0;strokeWidth=2;" edge="1" parent="1" source="t4LPWN5obbuEQxLgJ1_r-31" target="t4LPWN5obbuEQxLgJ1_r-43">
          <mxGeometry relative="1" as="geometry" />
        </mxCell>
        <mxCell id="t4LPWN5obbuEQxLgJ1_r-31" value="email" style="ellipse;whiteSpace=wrap;html=1;" vertex="1" parent="1">
          <mxGeometry x="157.75" y="240" width="80" height="28.5" as="geometry" />
        </mxCell>
        <mxCell id="t4LPWN5obbuEQxLgJ1_r-34" style="edgeStyle=none;curved=1;rounded=0;orthogonalLoop=1;jettySize=auto;html=1;exitX=0.5;exitY=1;exitDx=0;exitDy=0;entryX=0.5;entryY=0;entryDx=0;entryDy=0;fontSize=12;startSize=8;endSize=8;endArrow=none;endFill=0;strokeWidth=2;" edge="1" parent="1" source="t4LPWN5obbuEQxLgJ1_r-26" target="t4LPWN5obbuEQxLgJ1_r-31">
          <mxGeometry relative="1" as="geometry" />
        </mxCell>
        <mxCell id="t4LPWN5obbuEQxLgJ1_r-49" style="edgeStyle=none;curved=1;rounded=0;orthogonalLoop=1;jettySize=auto;html=1;exitX=0.5;exitY=1;exitDx=0;exitDy=0;entryX=0.5;entryY=0;entryDx=0;entryDy=0;fontSize=12;startSize=8;endSize=8;endArrow=none;endFill=0;strokeWidth=2;" edge="1" parent="1" source="t4LPWN5obbuEQxLgJ1_r-35" target="t4LPWN5obbuEQxLgJ1_r-48">
          <mxGeometry relative="1" as="geometry" />
        </mxCell>
        <mxCell id="t4LPWN5obbuEQxLgJ1_r-35" value="parrafo" style="ellipse;whiteSpace=wrap;html=1;" vertex="1" parent="1">
          <mxGeometry x="378" y="240" width="80" height="28.5" as="geometry" />
        </mxCell>
        <mxCell id="t4LPWN5obbuEQxLgJ1_r-37" value="Alfredo Reino" style="rounded=0;whiteSpace=wrap;html=1;" vertex="1" parent="1">
          <mxGeometry x="-132.5" y="335" width="71" height="32" as="geometry" />
        </mxCell>
        <mxCell id="t4LPWN5obbuEQxLgJ1_r-40" value="alf@ibium.com" style="rounded=0;whiteSpace=wrap;html=1;" vertex="1" parent="1">
          <mxGeometry x="-49.25" y="335" width="90.5" height="32" as="geometry" />
        </mxCell>
        <mxCell id="t4LPWN5obbuEQxLgJ1_r-42" value="Bill Clinton" style="rounded=0;whiteSpace=wrap;html=1;" vertex="1" parent="1">
          <mxGeometry x="45.5" y="335" width="71" height="32" as="geometry" />
        </mxCell>
        <mxCell id="t4LPWN5obbuEQxLgJ1_r-43" value="president@whitehouse.gov" style="rounded=0;whiteSpace=wrap;html=1;" vertex="1" parent="1">
          <mxGeometry x="121" y="335" width="153.5" height="32" as="geometry" />
        </mxCell>
        <mxCell id="t4LPWN5obbuEQxLgJ1_r-46" value="Hola Bill" style="rounded=0;whiteSpace=wrap;html=1;" vertex="1" parent="1">
          <mxGeometry x="261.5" y="238.25" width="71" height="32" as="geometry" />
        </mxCell>
        <mxCell id="t4LPWN5obbuEQxLgJ1_r-48" value="Â¿Hola quÃ© tal?" style="rounded=0;whiteSpace=wrap;html=1;" vertex="1" parent="1">
          <mxGeometry x="369.25" y="335" width="97.5" height="32" as="geometry" />
        </mxCell>
        <mxCell id="0KIj-XEGfdzSwlypHHzS-1" value="NarcÃ­s Carol CostajussÃ " style="text;html=1;align=center;verticalAlign=middle;whiteSpace=wrap;rounded=0;fontSize=16;strokeColor=#82b366;strokeWidth=2;fillColor=#d5e8d4;" vertex="1" parent="1">
          <mxGeometry x="-107" y="-52" width="215" height="30" as="geometry" />
        </mxCell>
      </root>
    </mxGraphModel>
  </diagram>
</mxfile>
